<svg xmlns="http://www.w3.org/2000/svg" width="1200" height="630" viewBox="0 0 1200 630" role="img" aria-label="ldamoredev Security Atlas">
  <rect width="1200" height="630" fill="#111416"/>
  <rect x="64" y="64" width="1072" height="502" rx="32" fill="#171b1d" stroke="#2b3433" stroke-width="2"/>
  <path d="M158 150l82 32v56c0 51-31.5 96-82 114-50.5-18-82-63-82-114v-56l82-32z" fill="#256d85"/>
  <path d="M158 174l56 22.4V238c0 34.8-20.4 66-56 80-35.6-14-56-45.2-56-80v-41.6L158 174z" fill="#70c0d8"/>
  <path d="M122 242h72M158 206v80M128 216l60 60M188 216l-60 60" stroke="#111416" stroke-width="14" stroke-linecap="round"/>
  <text x="292" y="258" fill="#e8ece8" font-family="-apple-system,BlinkMacSystemFont,Segoe UI,Arial,sans-serif" font-size="72" font-weight="800">ldamoredev Security Atlas</text>
  <text x="296" y="336" fill="#a3ada8" font-family="-apple-system,BlinkMacSystemFont,Segoe UI,Arial,sans-serif" font-size="34" font-weight="500">Cybersecurity notes, playbooks, and references</text>
  <text x="296" y="438" fill="#70c0d8" font-family="-apple-system,BlinkMacSystemFont,Segoe UI,Arial,sans-serif" font-size="24" font-weight="700" letter-spacing="2">WEB · API · CLOUD · RECON · DEVSECOPS</text>
</svg>
